<?xml version="1.0" encoding="UTF-8" standalone="no"?>
<svg width="480.92" xmlns="http://www.w3.org/2000/svg" xmlns:xlink="http://www.w3.org/1999/xlink" version="1.1" height="451.35">
 <defs id="defs3165">
  <filter id="filter3477" style="color-interpolation-filters:sRGB">
   <feGaussianBlur id="feGaussianBlur3479" stdDeviation="6.1435937"/>
  </filter>
  <linearGradient id="linearGradient3054" y2="799.27" gradientUnits="userSpaceOnUse" x2="-71.068" gradientTransform="matrix(.059144 .10298 -.26135 .15082 510.42 295.66)" y1="790.04" x1="252.89">
   <stop id="stop37" stop-color="#fff" stop-opacity="0" offset="0"/>
   <stop id="stop38" stop-color="#fff" offset="1"/>
  </linearGradient>
  <linearGradient id="linearGradient2510" y2="546.39" gradientUnits="userSpaceOnUse" x2="83.843" y1="110.98" x1="522.83">
   <stop id="stop6" stop-color="#a40000" offset="0"/>
   <stop id="stop7" stop-color="#e44041" offset="1"/>
  </linearGradient>
  <linearGradient id="linearGradient3161" y2="149.77" gradientUnits="userSpaceOnUse" x2="506.21" gradientTransform="matrix(-.032113 .16544 -.16544 -.032113 389.28 405.02)" y1="496.96" x1="159.02">
   <stop id="stop3319" stop-color="#fff" stop-opacity=".502" offset="0"/>
   <stop id="stop3321" stop-color="#fff" stop-opacity="0" offset="1"/>
  </linearGradient>
 </defs>
 <g id="layer1" transform="translate(-130.26 -648.22)">
  <g id="g3080" transform="matrix(4.2808 0 0 4.2808 -1032.1 -1048.4)">
   <path id="path3389" d="m187.25 11.781c-12.509 0-22.688 10.148-22.688 22.656 0 10.163 6.7149 18.786 15.938 21.656v22.844c-44.979 4.0148-80.635 40.578-83.156 85.969h-26.531c-2.4621-9.8504-11.39-17.156-22-17.156-12.509 0-22.656 10.148-22.656 22.656 0 12.509 10.148 22.656 22.656 22.656 10.163 0 18.786-6.6836 21.656-15.906h27c2.1597 28.103 17.038 52.661 38.875 67.938-6.812 21.124-10.5 43.65-10.5 67.031 0 120.56 97.841 218.41 218.41 218.41 115.69 0 210.4-90.1 217.88-203.91 8.2618 7.3189 25.182 12.085 30.688 13.125 7.9881 1.4334 34.87-2.3168 41.125-9.3125-3.4603-8.8578-27.362-20.489-35.875-22.094-4.7789-0.9297-25.654-3.1748-35.469 2.3125-0.70698-55.09-20.074-104.43-52.312-142.09 8.2994-4.6515 15.864-10.582 18.844-13.312 6.6753-6.2296 21.086-32.593 18.656-42.594-0.99936-0.23435-2.1509-0.34841-3.4062-0.3125-12.135 0.34709-34.831 12.434-41.344 18.406-2.3498 2.1298-8.6958 8.7982-13.906 16.406-38.128-33.485-88.502-53.438-144.88-53.438-6.5664 0-13.049 0.30728-19.469 0.875 7.7665-7.8369 13.513-24.362 14.875-29.781 1.9068-7.8885-0.23316-34.964-6.8438-41.625-9.0483 2.9263-22.078 26.097-24.188 34.5-1.3526 5.2587-5.5198 30.394 2.25 38.562-18.241 2.7966-35.725 7.8526-52.188 14.875-15.986-18.951-39.502-31.356-65.938-32.5v-22.188c9.8504-2.4621 17.156-11.39 17.156-22 0-12.509-10.148-22.656-22.656-22.656zm-106.62 289.16c-6.1554 0.10804-11.519 0.62282-14.281 1.0312-9.2014 1.4356-36.768 14.296-40.719 23.031 7.2873 7.1003 37.756 9.7078 47.594 8.25 7.0305-1.0052 43.006-9.073 40.25-22.188-1.9245-8.6907-19.302-10.363-32.844-10.125zm88.25 162.91c-11.046 0.0623-27.861 13.602-32.406 18-5.7805 5.6965-18.26 29.823-16.156 38.969 9.2309 2.2859 32.558-10.504 38.781-16.531 4.4685-4.2769 25.663-28.56 16.281-38.031-1.7148-1.6985-3.951-2.4206-6.5-2.4062zm181.94 81.812c-11.509 0.49799-21.679 30.127-23.719 38.219-2.1971 9.0225-1.0787 40.344 5.2812 48.312 9.1502-2.991 23.051-29.143 25.469-38.75 1.7611-6.8475 8.1549-43.339-4.6875-47.469-0.77706-0.24069-1.5765-0.3457-2.3438-0.3125z" fill-opacity=".372" transform="matrix(-.032113 .16544 -.16544 -.032113 389.28 405.02)" filter="url(#filter3477)" fill="#40405c"/>
   <ellipse id="head" d="m 222.60056,250.45305 c 0,50.54557 -40.97528,91.52085 -91.52085,91.52085 -50.545568,0 -91.520849,-40.97528 -91.520849,-91.52085 0,-50.54557 40.975281,-91.52085 91.520849,-91.52085 50.54557,0 91.52085,40.97528 91.52085,91.52085 z" fill-rule="evenodd" rx="91.521" ry="91.521" transform="matrix(-.032113 .16544 -.16544 -.032113 398.57 413.93)" cy="250.45" cx="131.08"/>
   <g stroke-linejoin="round" stroke-width="20" stroke-linecap="round" stroke="#000">
    <ellipse id="carapice_undercoat" d="m 525.31866,332.25525 c 0,120.62716 -97.78763,218.41479 -218.41479,218.41479 -120.62716,0 -218.414795,-97.78763 -218.414795,-218.41479 0,-120.62716 97.787635,-218.4148 218.414795,-218.4148 120.62716,0 218.41479,97.78764 218.41479,218.4148 z" rx="218.41" ry="218.41" transform="matrix(-.032113 .16544 -.16544 -.032113 389.25 408.64)" cy="332.26" cx="306.9" fill="#b70000"/>
    <ellipse id="carapice" d="m 525.31866,332.25525 c 0,120.62716 -97.78763,218.41479 -218.41479,218.41479 -120.62716,0 -218.414795,-97.78763 -218.414795,-218.41479 0,-120.62716 97.787635,-218.4148 218.414795,-218.4148 120.62716,0 218.41479,97.78764 218.41479,218.4148 z" fill-opacity=".5" rx="218.41" ry="218.41" transform="matrix(-.032113 .16544 -.16544 -.032113 389.25 408.64)" cy="332.26" cx="306.9" fill="url(#linearGradient2510)"/>
   </g>
   <g fill-rule="evenodd">
    <path id="spot1" d="m338.58 440.89c-8.6612-6.1153-9.3424-21.478-3.961-24.289 7.0896-2.6724 22.509 9.6777 21.596 15.374-2.1915 9.3034-12.773 12.751-17.636 8.9152z"/>
    <path id="spot2" d="m337.13 479.16c-2.4002-1.6226-0.19531-11.991 3.2256-13.64 3.6788-1.9849 10.312-0.97968 11.288 3.926 0.56794 5.0194-11.814 11.78-14.513 9.714z"/>
    <path id="spot3" d="m304.64 459.37c4.2166-6.8212 16.14-2.6167 18.117 0.68142 2.2879 4.3294-2.0499 13.45-8.6063 14.99-6.6977 0.95019-12.802-9.2573-9.5104-15.671z"/>
    <path id="spot4" d="m291.07 434.14c1.0783-4.5744 9.4337-14.619 16.707-13.73 5.6818 0.63 6.6821 12.615 2.4137 17.473-4.1115 3.8857-19.972 4.3566-19.121-3.7424z"/>
    <g id="antenna1" transform="matrix(-.032113 .16544 -.16544 -.032113 400.82 412.25)">
     <ellipse id="ellipse16" d="m 40.88806,243.65601 c 0,12.51516 -10.145549,22.66071 -22.660717,22.66071 -12.5151688,0 -22.6607174,-10.14555 -22.6607174,-22.66071 0,-12.51517 10.1455486,-22.66072 22.6607174,-22.66072 12.515168,0 22.660717,10.14555 22.660717,22.66072 z" rx="22.661" ry="22.661" transform="translate(-14.699 18.374)" cy="243.66" cx="18.227"/>
     <rect id="rect18" transform="translate(1.2249 -1.2249)" height="12.249" width="44.097" y="257.74" x="15.165"/>
    </g>
    <g id="antenna2" transform="matrix(-.16544 -.032113 .032113 -.16544 367.58 475.15)">
     <ellipse id="ellipse23" d="m 40.88806,243.65601 c 0,12.51516 -10.145549,22.66071 -22.660717,22.66071 -12.5151688,0 -22.6607174,-10.14555 -22.6607174,-22.66071 0,-12.51517 10.1455486,-22.66072 22.6607174,-22.66072 12.515168,0 22.660717,10.14555 22.660717,22.66072 z" rx="22.661" ry="22.661" transform="translate(-14.699 18.374)" cy="243.66" cx="18.227"/>
     <rect id="rect24" transform="translate(1.2249 -1.2249)" height="12.249" width="44.097" y="257.74" x="15.165"/>
    </g>
    <g stroke-width=".57">
     <path id="leg1" d="m331.62 411.08c-2.2035-0.43853-1.5301-5.83-1.3091-6.8487 0.3012-1.4286 2.3501-5.4135 3.8551-5.9644 1.1561 1.0792 1.6865 5.6248 1.4161 6.9655-0.27114 1.2836-1.8305 6.2508-3.9621 5.8476z"/>
     <path id="leg2" d="m316.98 486.49c2.2035 0.43853 1.5301 5.83 1.3091 6.8487-0.3012 1.4287-2.3501 5.4135-3.8551 5.9645-1.1561-1.0792-1.6865-5.6248-1.4161-6.9655 0.27113-1.2836 1.8305-6.2508 3.9621-5.8476z"/>
     <path id="leg3" d="m362.27 456.47c0.43853-2.2034 5.83-1.53 6.8487-1.309 1.4286 0.3012 5.4135 2.3501 5.9645 3.8551-1.0792 1.1561-5.6248 1.6865-6.9655 1.4161-1.2836-0.27112-6.2508-1.8305-5.8476-3.9621z"/>
     <path id="leg4" d="m286.55 441.63c-0.43852 2.2035-5.83 1.5301-6.8487 1.3091-1.4286-0.3012-5.4135-2.3501-5.9644-3.8551 1.0792-1.1561 5.6248-1.6865 6.9655-1.4161 1.2836 0.27114 6.2508 1.8305 5.8476 3.9621z"/>
     <path id="leg5" d="m304.35 415.85c-1.8682 1.248-5.2043-3.0405-5.7684-3.9171-0.79722-1.2232-2.1662-5.4897-1.4916-6.9435 1.5806-0.0543 5.1698 2.7848 5.9267 3.9241 0.71592 1.0994 3.1257 5.7143 1.3333 6.9365z"/>
     <path id="leg6" d="m345.84 480.85c1.8682-1.248 5.2043 3.0405 5.7684 3.9171 0.79722 1.2232 2.1662 5.4897 1.4915 6.9435-1.5806 0.0543-5.1698-2.7848-5.9267-3.9241-0.71593-1.0994-3.1257-5.7144-1.3333-6.9365z"/>
    </g>
   </g>
   <path id="highlight1" fill-opacity=".5" fill="url(#linearGradient3054)" d="m318.02 437.98c-10.329 5.9604-25.229 13.914-26.952 10.914-2.6848-4.9884 3.3508-21.259 15.44-29.347 11.737-7.3298 27.824-5.3026 31.024-0.6559 1.7234 3.0005-9.1829 13.129-19.511 19.09z"/>
   <g fill-rule="evenodd" fill="#fff">
    <path id="highlight2" fill-opacity=".902" d="m311.5 428.2c-9.972 6.4362-17.548 17.282-19.274 14.295-1.1099-1.8666 5.0029-16.357 14.849-22.144 10.621-6.31 22.346-4.9767 23.406-3.2863 1.726 2.9868-8.5347 4.5669-18.981 11.136z"/>
    <path id="highlight3" fill-opacity=".906" d="m352.19 416.63c-5.066 1.2786-4.8675 1.6967-5.8931 0.74054-1.0256-0.95614-0.0238-2.5836 5.0421-3.8622 3.7126-1.0797 7.3567 1.0092 8.3823 1.9653 1.8578 1.9762-2.4655-0.12221-7.5313 1.1563z"/>
   </g>
   <g id="carapice_divider" transform="matrix(-.032113 .16544 -.16544 -.032113 402.75 403.61)" stroke="#000" stroke-width="5" fill="none">
    <path id="path41" transform="matrix(.91954 0 0 .87770 15.275 34.579)" d="m527.95 596.92-325.68-346.89"/>
    <path id="path53" transform="matrix(.90112 0 0 .86040 23.001 37.904)" d="m527.95 596.92-325.68-346.89"/>
   </g>
   <path id="path3289" opacity=".5" fill="url(#linearGradient3161)" d="m355.84 438.37c2.5259 3.7427-2.0251 24.06-15.903 33.41s-34.665 5.2304-36.741 2.1539c-2.7623-4.0929 11.698-16.275 23.003-23.759 11.306-7.4833 27.133-15.522 29.641-11.806z"/>
  </g>
 </g>
</svg>
