<?xml version="1.0" encoding="utf-8"?>
<!-- Generator: Adobe Illustrator 18.0.0, SVG Export Plug-In . SVG Version: 6.00 Build 0)  -->
<!DOCTYPE svg PUBLIC "-//W3C//DTD SVG 1.1//EN" "http://www.w3.org/Graphics/SVG/1.1/DTD/svg11.dtd">
<svg version="1.1" id="Layer_1" xmlns="http://www.w3.org/2000/svg" xmlns:xlink="http://www.w3.org/1999/xlink" x="0px" y="0px"
	 viewBox="0 0 375.6 69.9" enable-background="new 0 0 375.6 69.9" xml:space="preserve">
<g>
	<path fill="#27B9B7" d="M3.3,51.5L9.5,8.4h0.7l17.5,35.4L45,8.4h0.7l6.2,43.1h-4.2l-4.3-30.8L28.2,51.5h-1.1L11.7,20.5L7.4,51.5
		H3.3z"/>
	<path fill="#FFFFFF" d="M59.2,19.7h4.1v14.9c0,3.6,0.2,6.1,0.6,7.5c0.6,2,1.7,3.5,3.4,4.6s3.6,1.7,5.9,1.7c2.3,0,4.2-0.6,5.8-1.7
		c1.6-1.1,2.7-2.6,3.3-4.4c0.4-1.2,0.6-3.8,0.6-7.8V19.7h4.2v15.6c0,4.4-0.5,7.7-1.5,9.9s-2.6,4-4.6,5.2c-2.1,1.3-4.6,1.9-7.7,1.9
		s-5.7-0.6-7.8-1.9s-3.6-3-4.7-5.3s-1.5-5.6-1.5-10.2V19.7z"/>
	<path fill="#FFFFFF" d="M94.6,19.7h4.2v4.7c1.2-1.8,2.6-3.2,4-4.1c1.4-0.9,2.8-1.4,4.3-1.4c1.1,0,2.3,0.4,3.6,1.1l-2.1,3.5
		c-0.9-0.4-1.6-0.6-2.2-0.6c-1.4,0-2.7,0.6-4,1.7c-1.3,1.1-2.2,2.9-2.9,5.2c-0.5,1.8-0.8,5.5-0.8,11v10.8h-4.2V19.7z"/>
	<path fill="#FFFFFF" d="M114.2,7.4h4.1v18c1.7-2.2,3.5-3.8,5.5-4.9s4.1-1.6,6.5-1.6c2.4,0,4.5,0.6,6.3,1.8c1.8,1.2,3.2,2.8,4.1,4.9
		c0.9,2,1.3,5.2,1.3,9.6v16.4h-4.1V36.3c0-3.7-0.1-6.1-0.4-7.4c-0.5-2.1-1.4-3.7-2.8-4.8c-1.3-1.1-3.1-1.6-5.3-1.6
		c-2.5,0-4.7,0.8-6.7,2.5s-3.3,3.7-3.9,6.1c-0.4,1.6-0.6,4.5-0.6,8.7v11.7h-4.1V7.4z"/>
	<path fill="#FFFFFF" d="M182.6,19.7v31.9h-4v-5.5c-1.7,2.1-3.6,3.7-5.8,4.7s-4.5,1.6-7,1.6c-4.5,0-8.4-1.6-11.6-4.9
		s-4.8-7.3-4.8-11.9c0-4.6,1.6-8.5,4.8-11.8s7.1-4.9,11.6-4.9c2.6,0,5,0.6,7.1,1.7c2.1,1.1,4,2.8,5.6,5v-5.9H182.6z M166.2,22.8
		c-2.3,0-4.4,0.6-6.3,1.7c-1.9,1.1-3.5,2.7-4.6,4.7c-1.1,2-1.7,4.2-1.7,6.4c0,2.2,0.6,4.4,1.7,6.4c1.2,2,2.7,3.6,4.6,4.8
		s4,1.7,6.2,1.7c2.2,0,4.4-0.6,6.4-1.7c2-1.1,3.6-2.7,4.6-4.6c1.1-1.9,1.6-4.1,1.6-6.5c0-3.7-1.2-6.8-3.6-9.2
		C172.7,24,169.7,22.8,166.2,22.8z"/>
	<path fill="#FFFFFF" d="M204.9,7.4v4c-1.5-0.6-2.8-1-3.9-1c-0.8,0-1.5,0.2-2,0.5c-0.5,0.3-0.9,0.7-1,1.1c-0.1,0.4-0.2,1.5-0.2,3.4
		l0,4.3h6.7v3.5h-6.7l0,28.3h-4.1V23.2h-4.2v-3.5h4.2v-5c0-2.3,0.2-3.9,0.6-4.9c0.4-1,1.1-1.8,2.1-2.4c1-0.6,2.2-0.9,3.6-0.9
		C201.5,6.5,203.1,6.8,204.9,7.4z"/>
	<path fill="#27B9B7" d="M223.5,43.5l3.7-2.2c2.6,4.7,5.6,7.1,8.9,7.1c1.4,0,2.8-0.3,4.1-1s2.2-1.6,2.9-2.7s1-2.3,1-3.6
		c0-1.4-0.5-2.9-1.5-4.2c-1.3-1.9-3.8-4.2-7.4-6.9c-3.6-2.7-5.8-4.7-6.7-5.9c-1.5-2-2.3-4.2-2.3-6.6c0-1.9,0.4-3.6,1.3-5.1
		c0.9-1.5,2.2-2.8,3.8-3.6c1.6-0.9,3.4-1.3,5.3-1.3c2,0,3.9,0.5,5.7,1.5c1.8,1,3.6,2.9,5.6,5.6l-3.5,2.7c-1.6-2.1-3-3.6-4.1-4.2
		c-1.1-0.7-2.4-1-3.7-1c-1.7,0-3.2,0.5-4.3,1.6s-1.7,2.4-1.7,3.9c0,0.9,0.2,1.8,0.6,2.7s1.1,1.8,2.1,2.9c0.6,0.5,2.4,2,5.6,4.3
		c3.7,2.8,6.3,5.2,7.7,7.4s2.1,4.3,2.1,6.5c0,3.1-1.2,5.8-3.6,8.1s-5.3,3.5-8.7,3.5c-2.6,0-5-0.7-7.1-2.1S225.3,46.8,223.5,43.5z"/>
	<path fill="#FFFFFF" d="M272.2,18.8c4.9,0,9,1.8,12.2,5.3c2.9,3.2,4.4,7.1,4.4,11.5c0,4.5-1.6,8.3-4.7,11.7c-3.1,3.3-7.1,5-12,5
		c-4.9,0-8.9-1.7-12-5c-3.1-3.3-4.7-7.2-4.7-11.7c0-4.4,1.5-8.2,4.4-11.5C263.2,20.6,267.3,18.8,272.2,18.8z M272.2,22.9
		c-3.4,0-6.3,1.3-8.8,3.8s-3.7,5.6-3.7,9.1c0,2.3,0.6,4.5,1.7,6.4s2.6,3.5,4.5,4.6s4,1.6,6.3,1.6s4.4-0.5,6.3-1.6
		c1.9-1.1,3.4-2.6,4.5-4.6s1.7-4.1,1.7-6.4c0-3.6-1.2-6.6-3.7-9.1S275.6,22.9,272.2,22.9z"/>
	<path fill="#FFFFFF" d="M295.9,19.7h4.1v14.9c0,3.6,0.2,6.1,0.6,7.5c0.6,2,1.7,3.5,3.4,4.6c1.7,1.1,3.6,1.7,5.9,1.7
		c2.3,0,4.2-0.6,5.8-1.7c1.6-1.1,2.7-2.6,3.3-4.4c0.4-1.2,0.6-3.8,0.6-7.8V19.7h4.2v15.6c0,4.4-0.5,7.7-1.5,9.9s-2.6,4-4.6,5.2
		s-4.6,1.9-7.7,1.9s-5.7-0.6-7.8-1.9s-3.6-3-4.7-5.3s-1.5-5.6-1.5-10.2V19.7z"/>
	<path fill="#FFFFFF" d="M348.9,23.2l-2.6,2.7c-2.2-2.1-4.3-3.2-6.4-3.2c-1.3,0-2.5,0.4-3.4,1.3c-1,0.9-1.4,1.9-1.4,3.1
		c0,1,0.4,2,1.2,3c0.8,1,2.4,2.1,4.9,3.4c3.1,1.6,5.1,3.1,6.2,4.6c1.1,1.5,1.6,3.2,1.6,5c0,2.6-0.9,4.8-2.8,6.7s-4.1,2.7-6.9,2.7
		c-1.8,0-3.6-0.4-5.3-1.2c-1.7-0.8-3.1-1.9-4.2-3.3l2.6-2.9c2.1,2.4,4.3,3.5,6.7,3.5c1.6,0,3-0.5,4.2-1.6c1.2-1.1,1.7-2.3,1.7-3.7
		c0-1.2-0.4-2.2-1.1-3.1c-0.8-0.9-2.5-2-5.2-3.4c-2.9-1.5-4.8-2.9-5.9-4.4s-1.6-3.1-1.6-5c0-2.4,0.8-4.4,2.5-6
		c1.7-1.6,3.7-2.4,6.3-2.4C343,18.8,346,20.3,348.9,23.2z"/>
	<path fill="#FFFFFF" d="M355.6,7.4h4.1v44.2h-4.1V7.4z"/>
	<path fill="#FFFFFF" d="M369.6,6.5c0.9,0,1.7,0.3,2.4,1c0.7,0.7,1,1.5,1,2.4c0,0.9-0.3,1.7-1,2.4c-0.7,0.7-1.5,1-2.4,1
		c-0.9,0-1.7-0.3-2.4-1c-0.7-0.7-1-1.5-1-2.4c0-0.9,0.3-1.7,1-2.4C367.9,6.9,368.7,6.5,369.6,6.5z M367.6,19.7h4.1v31.9h-4.1V19.7z"
		/>
</g>
</svg>
