<?xml version="1.0" encoding="utf-8"?>
<!-- Generator: Adobe Illustrator 18.0.0, SVG Export Plug-In . SVG Version: 6.00 Build 0)  -->
<!DOCTYPE svg PUBLIC "-//W3C//DTD SVG 1.1//EN" "http://www.w3.org/Graphics/SVG/1.1/DTD/svg11.dtd">
<svg width="80px" height="80px" version="1.1" id="Capa_1" xmlns="http://www.w3.org/2000/svg" xmlns:xlink="http://www.w3.org/1999/xlink" x="0px" y="0px"
	 viewBox="0 0 70 70" enable-background="new 0 0 70 70" xml:space="preserve">
<path fill="#090a11" d="M35,0C21.9,0,11.2,10.6,11.2,23.6c0,6.7,6.5,18.6,6.5,18.6L34.1,70l17.1-27.4c0,0,7.6-11.4,7.6-19
	C58.8,10.6,48.1,0,35,0z M34.9,36.6c-7.5,0-13.6-6.1-13.6-13.6c0-7.5,6.1-13.6,13.6-13.6c7.5,0,13.6,6.1,13.6,13.6
	C48.5,30.5,42.4,36.6,34.9,36.6z"/>
<circle fill="#090a11" cx="35" cy="23.2" r="14.6"/>
<g id="Layer_2">
	<g>
		<rect x="23.3" y="12.4" fill="#EF4750" width="1.8" height="22.6"/>
		<polygon fill="#EF4650" points="28.7,20.8 28.6,17.7 37.6,35.1 35.8,35.1 		"/>
		<polygon fill="#EF4650" points="44.1,12.4 45.8,12.4 38.5,29.5 37.6,27.7 		"/>
		<polygon fill="#EF4650" points="47.2,17.4 47.2,35.1 45.5,35.1 45.5,21.7 		"/>
	</g>
</g>
</svg>
