<?xml version="1.0" encoding="iso-8859-1"?>
<!-- Generator: Adobe Illustrator 19.0.0, SVG Export Plug-In . SVG Version: 6.00 Build 0)  -->
<svg version="1.1" id="Layer_1" xmlns="http://www.w3.org/2000/svg" xmlns:xlink="http://www.w3.org/1999/xlink" x="0px" y="0px"
	 viewBox="0 0 512 512" style="enable-background:new 0 0 512 512;" xml:space="preserve">
<path style="fill:#D2DCF0;" d="M485.517,61.793H26.483C11.857,61.793,0,73.65,0,88.276v335.448
	c0,14.626,11.857,26.483,26.483,26.483h459.034c14.626,0,26.483-11.857,26.483-26.483V88.276
	C512,73.65,500.143,61.793,485.517,61.793z M441.379,79.448h8.828c4.875,0,8.828,3.953,8.828,8.828c0,4.875-3.953,8.828-8.828,8.828
	h-8.828c-4.875,0-8.828-3.953-8.828-8.828C432.552,83.401,436.504,79.448,441.379,79.448z M194.207,79.448h211.862
	c4.875,0,8.828,3.953,8.828,8.828c0,4.875-3.953,8.828-8.828,8.828H194.207c-4.875,0-8.828-3.953-8.828-8.828
	C185.379,83.401,189.332,79.448,194.207,79.448z M150.069,79.448h8.828c4.875,0,8.828,3.953,8.828,8.828
	c0,4.875-3.953,8.828-8.828,8.828h-8.828c-4.875,0-8.828-3.953-8.828-8.828C141.241,83.401,145.194,79.448,150.069,79.448z
	 M114.759,79.448h8.828c4.875,0,8.828,3.953,8.828,8.828c0,4.875-3.953,8.828-8.828,8.828h-8.828c-4.875,0-8.828-3.953-8.828-8.828
	C105.931,83.401,109.884,79.448,114.759,79.448z M79.448,79.448c4.875,0,8.828,3.953,8.828,8.828c0,4.875-3.953,8.828-8.828,8.828
	c-4.875,0-8.828-3.953-8.828-8.828C70.621,83.401,74.573,79.448,79.448,79.448z M52.966,79.448c4.875,0,8.828,3.953,8.828,8.828
	c0,4.875-3.953,8.828-8.828,8.828s-8.828-3.953-8.828-8.828C44.138,83.401,48.09,79.448,52.966,79.448z M26.483,79.448
	c4.875,0,8.828,3.953,8.828,8.828c0,4.875-3.953,8.828-8.828,8.828s-8.828-3.953-8.828-8.828
	C17.655,83.401,21.608,79.448,26.483,79.448z M494.345,423.724c0,4.875-3.953,8.828-8.828,8.828H26.483
	c-4.875,0-8.828-3.953-8.828-8.828V123.586c0-4.875,3.953-8.828,8.828-8.828h459.034c4.875,0,8.828,3.953,8.828,8.828V423.724z
	 M485.517,97.103h-8.828c-4.875,0-8.828-3.953-8.828-8.828c0-4.875,3.953-8.828,8.828-8.828h8.828c4.875,0,8.828,3.953,8.828,8.828
	C494.345,93.151,490.392,97.103,485.517,97.103z"/>
<path style="fill:#464655;" d="M485.517,114.759H26.483c-4.875,0-8.828,3.953-8.828,8.828v300.138c0,4.875,3.953,8.828,8.828,8.828
	h459.034c4.875,0,8.828-3.953,8.828-8.828V123.586C494.345,118.711,490.392,114.759,485.517,114.759z M183.194,338.461
	c3.211,3.672,2.84,9.246-0.828,12.457c-1.677,1.465-3.75,2.185-5.811,2.185c-2.457,0-4.9-1.022-6.646-3.012l-61.793-70.621
	c-2.914-3.332-2.914-8.298,0-11.629l61.793-70.621c3.211-3.659,8.785-4.034,12.457-0.828c3.668,3.211,4.039,8.785,0.828,12.457
	l-56.707,64.807L183.194,338.461z M299.561,188.522L228.94,373.901c-1.341,3.521-4.694,5.689-8.25,5.689
	c-1.047,0-2.108-0.19-3.143-0.582c-4.556-1.737-6.84-6.836-5.108-11.392l70.621-185.379c1.737-4.561,6.836-6.836,11.392-5.108
	C299.009,178.867,301.293,183.966,299.561,188.522z M403.884,279.47l-61.793,70.621c-1.746,1.992-4.19,3.012-6.646,3.012
	c-2.06,0-4.134-0.719-5.811-2.185c-3.668-3.211-4.039-8.785-0.828-12.457l56.706-64.807l-56.707-64.806
	c-3.211-3.672-2.84-9.246,0.828-12.457c3.677-3.215,9.246-2.836,12.457,0.828l61.793,70.621
	C406.797,271.172,406.797,276.138,403.884,279.47z"/>
<circle style="fill:#FF6469;" cx="26.483" cy="88.276" r="8.828"/>
<circle style="fill:#FFE169;" cx="52.966" cy="88.276" r="8.828"/>
<circle style="fill:#87E1AA;" cx="79.448" cy="88.276" r="8.828"/>
<g>
	<path style="fill:#E4EAF6;" d="M114.759,97.103h8.828c4.875,0,8.828-3.953,8.828-8.828c0-4.875-3.953-8.828-8.828-8.828h-8.828
		c-4.875,0-8.828,3.953-8.828,8.828C105.931,93.151,109.884,97.103,114.759,97.103z"/>
	<path style="fill:#E4EAF6;" d="M150.069,97.103h8.828c4.875,0,8.828-3.953,8.828-8.828c0-4.875-3.953-8.828-8.828-8.828h-8.828
		c-4.875,0-8.828,3.953-8.828,8.828C141.241,93.151,145.194,97.103,150.069,97.103z"/>
	<path style="fill:#E4EAF6;" d="M441.379,97.103h8.828c4.875,0,8.828-3.953,8.828-8.828c0-4.875-3.953-8.828-8.828-8.828h-8.828
		c-4.875,0-8.828,3.953-8.828,8.828C432.552,93.151,436.504,97.103,441.379,97.103z"/>
	<path style="fill:#E4EAF6;" d="M485.517,79.448h-8.828c-4.875,0-8.828,3.953-8.828,8.828c0,4.875,3.953,8.828,8.828,8.828h8.828
		c4.875,0,8.828-3.953,8.828-8.828C494.345,83.401,490.392,79.448,485.517,79.448z"/>
	<path style="fill:#E4EAF6;" d="M194.207,97.103h211.862c4.875,0,8.828-3.953,8.828-8.828c0-4.875-3.953-8.828-8.828-8.828H194.207
		c-4.875,0-8.828,3.953-8.828,8.828C185.379,93.151,189.332,97.103,194.207,97.103z"/>
</g>
<g>
	<path style="fill:#D2555F;" d="M182.367,196.392c-3.672-3.207-9.246-2.831-12.457,0.828l-61.793,70.621
		c-2.914,3.332-2.914,8.298,0,11.629l61.793,70.621c1.746,1.992,4.19,3.012,6.646,3.012c2.06,0,4.134-0.719,5.811-2.185
		c3.668-3.211,4.039-8.785,0.828-12.457l-56.707-64.805l56.707-64.806C186.406,205.176,186.035,199.604,182.367,196.392z"/>
	<path style="fill:#D2555F;" d="M342.091,197.219c-3.211-3.663-8.78-4.043-12.457-0.828c-3.668,3.211-4.039,8.785-0.828,12.457
		l56.706,64.807l-56.707,64.806c-3.211,3.672-2.84,9.246,0.828,12.457c1.677,1.465,3.75,2.185,5.811,2.185
		c2.457,0,4.9-1.022,6.646-3.012l61.793-70.621c2.914-3.332,2.914-8.298,0-11.629L342.091,197.219z"/>
</g>
<path style="fill:#FF6469;" d="M294.453,177.129c-4.556-1.728-9.655,0.547-11.392,5.108L212.44,367.616
	c-1.732,4.556,0.552,9.655,5.108,11.392c1.035,0.392,2.094,0.582,3.143,0.582c3.556,0,6.91-2.168,8.25-5.689l70.621-185.379
	C301.293,183.966,299.009,178.867,294.453,177.129z"/>
<g>
</g>
<g>
</g>
<g>
</g>
<g>
</g>
<g>
</g>
<g>
</g>
<g>
</g>
<g>
</g>
<g>
</g>
<g>
</g>
<g>
</g>
<g>
</g>
<g>
</g>
<g>
</g>
<g>
</g>
</svg>
